<svg height="512pt" viewBox="0 0 512.00001 512" width="512pt" xmlns="http://www.w3.org/2000/svg"><path d="m458.652344.136719-184.171875 237.382812-253.226563 200.015625-5.765625-2.441406c-11.464843-4.855469-17.75-17.324219-14.738281-29.398438 18.515625-74.183593 72.679688-164.117187 153.597656-245.035156 104.085938-104.085937 223.101563-163.917968 304.304688-160.523437zm0 0" fill="#ff6f7f"/><path d="m351.339844 357.65625c-80.917969 80.914062-170.851563 135.078125-245.035156 153.59375-12.074219 3.011719-24.542969-3.273438-29.398438-14.738281l-2.441406-5.765625 200.015625-253.226563 237.382812-184.171875c3.394531 81.203125-56.4375 200.21875-160.523437 304.308594zm0 0" fill="#7ece5c"/><path d="m511.863281 53.347656-23.242187 18.03125c-12.78125 77.699219-69.300782 177.089844-157.886719 265.671875-80.914063 80.914063-170.847656 135.078125-245.035156 153.59375-3.769531.941407-7.578125.976563-11.179688.230469 1.089844 2.578125 2.058594 5.253906 3.382813 7.726562 3.609375 6.75 10 11.378907 17.210937 12.875 8.421875 1.75 17.308594-1.710937 25.28125-4.113281 14.261719-4.300781 29.019531-9.835937 44.117188-16.542969 60.382812-26.839843 126.140625-72.476562 186.828125-133.164062 29.429687-29.429688 56.5625-61.214844 80.503906-95.269531 51.15625-72.765625 79.792969-145.203125 80.152344-201.316407.015625-2.613281-.027344-5.1875-.132813-7.722656zm0 0" fill="#4eb229"/><path d="m511.863281 53.347656-437.398437 437.398438-12.125-28.644532c-2.378906-5.601562-6.835938-10.0625-12.441406-12.441406l-28.644532-12.125 437.398438-437.398437c12.941406.539062 24.914062 2.691406 35.722656 6.519531 5.128906 1.816406 9.148438 5.839844 10.96875 10.96875 3.828125 10.808594 5.980469 22.78125 6.519531 35.722656zm0 0" fill="#f8e86a"/><path d="m494.375 6.65625c-2.300781-.816406-4.898438-1.613281-7.351562-2.28125 2.40625 8.808594 3.816406 18.292969 4.234374 28.367188.585938 13.960937-.699218 29.035156-3.757812 44.964843 0 0 24.363281-24.363281 24.363281-24.363281-.503906-12.125-2.457031-24.257812-6.519531-35.71875-1.800781-5.085938-5.886719-9.167969-10.96875-10.96875zm0 0" fill="#f5c956"/><g fill="#423e4f"><path d="m205.523438 198.585938c-1.976563 0-3.957032-.753907-5.464844-2.265626-3.015625-3.015624-3.015625-7.910156 0-10.925781l10.460937-10.460937c3.019531-3.019532 7.910157-3.019532 10.929688 0 3.015625 3.015625 3.015625 7.910156 0 10.925781l-10.464844 10.460937c-1.507813 1.507813-3.484375 2.265626-5.460937 2.265626zm0 0"/><path d="m321.140625 314.203125c-1.976563 0-3.953125-.753906-5.460937-2.261719-3.019532-3.019531-3.019532-7.910156 0-10.925781l10.460937-10.464844c3.015625-3.015625 7.910156-3.015625 10.925781 0 3.019532 3.019531 3.019532 7.910157 0 10.929688l-10.460937 10.460937c-1.507813 1.507813-3.488281 2.261719-5.464844 2.261719zm0 0"/><path d="m273.128906 267.5c-7.433594 0-14.691406-3.039062-20.140625-8.488281-5.898437-5.898438-8.96875-13.902344-8.425781-21.96875.289062-4.257813 3.960938-7.480469 8.226562-7.191407 4.257813.285157 7.480469 3.96875 7.191407 8.226563-.242188 3.617187 1.191406 7.265625 3.933593 10.007813 2.746094 2.742187 6.398438 4.179687 10.007813 3.933593 4.265625-.28125 7.941406 2.933594 8.226563 7.191407.285156 4.257812-2.933594 7.941406-7.191407 8.226562-.609375.039062-1.21875.0625-1.828125.0625zm0 0"/></g></svg>